<?xml version="1.0" encoding="utf-8"?>
<!-- Svg Vector Icons : http://www.onlinewebfonts.com/icon -->
<!DOCTYPE svg PUBLIC "-//W3C//DTD SVG 1.1//EN" "http://www.w3.org/Graphics/SVG/1.1/DTD/svg11.dtd">
<svg version="1.1" xmlns="http://www.w3.org/2000/svg" xmlns:xlink="http://www.w3.org/1999/xlink" x="0px" y="0px" viewBox="0 0 1000 1000" enable-background="new 0 0 1000 1000" xml:space="preserve">
<metadata> Svg Vector Icons : http://www.onlinewebfonts.com/icon </metadata>
<g><path d="M775.6,990c-3.7,0-7.3-1.3-10.2-3.9L500,750.2L234.5,986.1c-4.5,4-11,5-16.4,2.5c-5.5-2.5-9-7.9-9-14V25.3c0-8.5,6.8-15.3,15.3-15.3h551.2c8.5,0,15.3,6.9,15.3,15.3v949.4c0,6-3.5,11.5-9,14C779.9,989.6,777.8,990,775.6,990L775.6,990z M500,714.4c3.6,0,7.3,1.3,10.2,3.9l250.1,222.3v-900H239.7v900l250.1-222.4C492.7,715.7,496.4,714.4,500,714.4L500,714.4z"/></g>
</svg>